<svg xmlns="http://www.w3.org/2000/svg" xmlns:xlink="http://www.w3.org/1999/xlink" width="1920" zoomAndPan="magnify" viewBox="0 0 1440 809.999993" height="1080" preserveAspectRatio="xMidYMid meet" version="1.0"><defs><g/><clipPath id="3ca1ecd32c"><path d="M 260.605469 276 L 368 276 L 368 470.546875 L 260.605469 470.546875 Z M 260.605469 276 " clip-rule="nonzero"/></clipPath></defs><path fill="#1fc2ba" d="M 365.671875 405.882812 C 365.671875 405.882812 362.640625 367.726562 395.78125 353.132812 C 428.921875 338.539062 431.960938 324.484375 431.960938 324.484375 C 431.960938 324.484375 461.390625 414.976562 374.074219 412.414062 C 374.074219 412.414062 420.070312 389.621094 422.988281 353.847656 C 422.988281 353.847656 416.339844 386.378906 365.671875 405.882812 " fill-opacity="1" fill-rule="nonzero"/><path fill="#1fc2ba" d="M 343.292969 435.433594 C 343.292969 435.433594 320.664062 442.417969 307.378906 424.378906 C 294.089844 406.335938 285.195312 406.398438 285.195312 406.398438 C 285.195312 406.398438 335.859375 376.414062 346.101562 429.476562 C 346.101562 429.476562 326.128906 404.785156 304.136719 407.851562 C 304.136719 407.851562 324.675781 407.476562 343.292969 435.433594 " fill-opacity="1" fill-rule="nonzero"/><g clip-path="url(#3ca1ecd32c)"><path fill="#1fc2ba" d="M 364.449219 468.683594 C 365.101562 430.910156 360.917969 401.085938 354.390625 377.640625 C 340.726562 321.832031 310.863281 302.199219 300.992188 297.097656 C 300.011719 296.574219 299.472656 296.34375 299.472656 296.34375 C 298.367188 295.828125 297.753906 295.601562 297.753906 295.601562 C 344.570312 306.535156 365.683594 371.980469 365.683594 371.980469 C 386.332031 256.804688 260.621094 277.910156 260.621094 277.910156 C 260.621094 277.910156 278.644531 284.71875 291.429688 331.507812 C 300.421875 364.402344 328.371094 375.910156 344.183594 379.847656 C 356.675781 428.828125 348.5625 470.433594 348.5625 470.433594 L 364.449219 468.683594 " fill-opacity="1" fill-rule="nonzero"/></g><g fill="#002d2b" fill-opacity="1"><g transform="translate(494.381695, 403.706778)"><g><path d="M 18.59375 -49.65625 C 25.863281 -49.65625 31.429688 -47.617188 35.296875 -43.546875 C 39.171875 -39.472656 41.109375 -33.4375 41.109375 -25.4375 C 41.109375 -20.238281 40.234375 -15.734375 38.484375 -11.921875 C 36.742188 -8.109375 34.179688 -5.164062 30.796875 -3.09375 C 27.410156 -1.03125 23.320312 0 18.53125 0 L 5.765625 0 L 5.765625 -49.65625 Z M 18.3125 -7.84375 C 21.59375 -7.84375 24.238281 -8.648438 26.25 -10.265625 C 28.269531 -11.878906 29.707031 -13.984375 30.5625 -16.578125 C 31.414062 -19.179688 31.84375 -22.0625 31.84375 -25.21875 C 31.84375 -30.257812 30.78125 -34.40625 28.65625 -37.65625 C 26.53125 -40.90625 23.082031 -42.53125 18.3125 -42.53125 L 14.96875 -42.53125 L 14.96875 -7.84375 Z M 18.3125 -7.84375 "/></g></g></g><g fill="#002d2b" fill-opacity="1"><g transform="translate(537.62196, 403.706778)"><g><path d="M 29.140625 -7.203125 L 11.40625 -7.203125 L 8.765625 0 L -1.21875 0 L 19.8125 -50.515625 L 20.515625 -50.515625 L 41.609375 0 L 31.921875 0 Z M 26.5 -14.109375 L 21.296875 -27.640625 L 20.09375 -31.640625 L 18.953125 -27.640625 L 13.96875 -14.109375 Z M 26.5 -14.109375 "/></g></g></g><g fill="#002d2b" fill-opacity="1"><g transform="translate(578.012786, 403.706778)"><g><path d="M 33.421875 -41.609375 L 21.9375 -41.609375 L 21.9375 0 L 12.75 0 L 12.75 -41.609375 L 1.28125 -41.609375 L 1.28125 -49.65625 L 33.421875 -49.65625 Z M 33.421875 -41.609375 "/></g></g></g><g fill="#002d2b" fill-opacity="1"><g transform="translate(612.704724, 403.706778)"><g><path d="M 29.140625 -7.203125 L 11.40625 -7.203125 L 8.765625 0 L -1.21875 0 L 19.8125 -50.515625 L 20.515625 -50.515625 L 41.609375 0 L 31.921875 0 Z M 26.5 -14.109375 L 21.296875 -27.640625 L 20.09375 -31.640625 L 18.953125 -27.640625 L 13.96875 -14.109375 Z M 26.5 -14.109375 "/></g></g></g><g fill="#002d2b" fill-opacity="1"><g transform="translate(653.095551, 403.706778)"><g/></g></g><g fill="#002d2b" fill-opacity="1"><g transform="translate(666.63039, 403.706778)"><g><path d="M 5.765625 -49.65625 L 14.890625 -49.65625 L 14.890625 0 L 5.765625 0 Z M 5.765625 -49.65625 "/></g></g></g><g fill="#002d2b" fill-opacity="1"><g transform="translate(687.288843, 403.706778)"><g><path d="M 41.109375 -49.65625 L 41.109375 1 L 40.40625 1 L 16.59375 -26.15625 L 14.390625 -29 L 14.75 -22.09375 L 14.75 0 L 5.984375 0 L 5.984375 -50.515625 L 6.765625 -50.515625 L 30.203125 -23.15625 L 32.703125 -19.921875 L 32.34375 -26.71875 L 32.34375 -49.65625 Z M 41.109375 -49.65625 "/></g></g></g><g fill="#002d2b" fill-opacity="1"><g transform="translate(734.375864, 403.706778)"><g><path d="M 22.796875 0.859375 C 19.210938 0.859375 15.890625 -0.109375 12.828125 -2.046875 C 9.765625 -3.984375 7.300781 -6.929688 5.4375 -10.890625 C 3.570312 -14.859375 2.640625 -19.726562 2.640625 -25.5 C 2.640625 -30.75 3.5625 -35.253906 5.40625 -39.015625 C 7.257812 -42.785156 9.769531 -45.644531 12.9375 -47.59375 C 16.113281 -49.539062 19.660156 -50.515625 23.578125 -50.515625 C 25.984375 -50.515625 28.015625 -50.28125 29.671875 -49.8125 C 31.335938 -49.351562 32.644531 -48.820312 33.59375 -48.21875 C 34.539062 -47.613281 35.457031 -46.90625 36.34375 -46.09375 L 32.34375 -38.625 C 31.507812 -39.519531 30.769531 -40.210938 30.125 -40.703125 C 29.488281 -41.191406 28.675781 -41.582031 27.6875 -41.875 C 26.707031 -42.175781 25.457031 -42.328125 23.9375 -42.328125 C 21.5625 -42.328125 19.519531 -41.628906 17.8125 -40.234375 C 16.101562 -38.847656 14.796875 -36.925781 13.890625 -34.46875 C 12.992188 -32.007812 12.546875 -29.1875 12.546875 -26 C 12.546875 -22.007812 13.015625 -18.601562 13.953125 -15.78125 C 14.890625 -12.957031 16.15625 -10.832031 17.75 -9.40625 C 19.351562 -7.976562 21.15625 -7.265625 23.15625 -7.265625 C 25.269531 -7.265625 27.140625 -7.5625 28.765625 -8.15625 C 30.390625 -8.75 31.628906 -9.5 32.484375 -10.40625 L 36.40625 -3.34375 C 34.957031 -2.15625 33.207031 -1.15625 31.15625 -0.34375 C 29.101562 0.457031 26.316406 0.859375 22.796875 0.859375 Z M 22.796875 0.859375 "/></g></g></g><g fill="#002d2b" fill-opacity="1"><g transform="translate(771.917253, 403.706778)"><g><path d="M 33.125 -8.046875 L 33.125 0 L 5.765625 0 L 5.765625 -49.65625 L 31.703125 -49.65625 L 31.703125 -41.890625 L 14.671875 -41.890625 L 14.671875 -30.28125 L 28.21875 -30.28125 L 28.21875 -22.734375 L 14.671875 -22.734375 L 14.671875 -8.046875 Z M 33.125 -8.046875 "/></g></g></g><g fill="#002d2b" fill-opacity="1"><g transform="translate(807.962691, 403.706778)"><g><path d="M 19.3125 -49.65625 C 24.914062 -49.65625 29.351562 -48.332031 32.625 -45.6875 C 35.90625 -43.039062 37.546875 -38.570312 37.546875 -32.28125 C 37.546875 -28.851562 36.90625 -25.707031 35.625 -22.84375 C 34.34375 -19.988281 32.351562 -17.6875 29.65625 -15.9375 C 26.957031 -14.195312 23.601562 -13.328125 19.59375 -13.328125 L 15.171875 -13.328125 L 15.171875 0 L 5.984375 0 L 5.984375 -49.65625 Z M 18.953125 -20.8125 C 22.066406 -20.8125 24.410156 -21.738281 25.984375 -23.59375 C 27.566406 -25.457031 28.359375 -28.1875 28.359375 -31.78125 C 28.359375 -34.269531 28.046875 -36.289062 27.421875 -37.84375 C 26.804688 -39.40625 25.789062 -40.566406 24.375 -41.328125 C 22.96875 -42.085938 21.085938 -42.46875 18.734375 -42.46875 L 15.171875 -42.46875 L 15.171875 -20.8125 Z M 18.953125 -20.8125 "/></g></g></g><g fill="#002d2b" fill-opacity="1"><g transform="translate(846.928806, 403.706778)"><g><path d="M 33.421875 -41.609375 L 21.9375 -41.609375 L 21.9375 0 L 12.75 0 L 12.75 -41.609375 L 1.28125 -41.609375 L 1.28125 -49.65625 L 33.421875 -49.65625 Z M 33.421875 -41.609375 "/></g></g></g><g fill="#002d2b" fill-opacity="1"><g transform="translate(881.620744, 403.706778)"><g><path d="M 5.765625 -49.65625 L 14.890625 -49.65625 L 14.890625 0 L 5.765625 0 Z M 5.765625 -49.65625 "/></g></g></g><g fill="#002d2b" fill-opacity="1"><g transform="translate(902.279211, 403.706778)"><g><path d="M 23.515625 0.859375 C 19.097656 0.859375 15.332031 -0.191406 12.21875 -2.296875 C 9.101562 -4.398438 6.75 -7.378906 5.15625 -11.234375 C 3.570312 -15.097656 2.78125 -19.640625 2.78125 -24.859375 C 2.78125 -30.035156 3.566406 -34.550781 5.140625 -38.40625 C 6.722656 -42.269531 9.050781 -45.253906 12.125 -47.359375 C 15.207031 -49.460938 18.929688 -50.515625 23.296875 -50.515625 C 27.835938 -50.515625 31.660156 -49.453125 34.765625 -47.328125 C 37.878906 -45.203125 40.210938 -42.210938 41.765625 -38.359375 C 43.328125 -34.515625 44.109375 -30.015625 44.109375 -24.859375 C 44.109375 -19.640625 43.304688 -15.097656 41.703125 -11.234375 C 40.097656 -7.378906 37.75 -4.398438 34.65625 -2.296875 C 31.570312 -0.191406 27.859375 0.859375 23.515625 0.859375 Z M 23.515625 -6.765625 C 25.628906 -6.765625 27.519531 -7.441406 29.1875 -8.796875 C 30.863281 -10.148438 32.1875 -12.203125 33.15625 -14.953125 C 34.132812 -17.710938 34.625 -21.085938 34.625 -25.078125 C 34.625 -30.941406 33.628906 -35.410156 31.640625 -38.484375 C 29.660156 -41.566406 26.878906 -43.109375 23.296875 -43.109375 C 19.804688 -43.109375 17.101562 -41.566406 15.1875 -38.484375 C 13.28125 -35.410156 12.328125 -30.921875 12.328125 -25.015625 C 12.328125 -20.972656 12.78125 -17.59375 13.6875 -14.875 C 14.601562 -12.15625 15.898438 -10.125 17.578125 -8.78125 C 19.253906 -7.4375 21.234375 -6.765625 23.515625 -6.765625 Z M 23.515625 -6.765625 "/></g></g></g><g fill="#002d2b" fill-opacity="1"><g transform="translate(949.152542, 403.706778)"><g><path d="M 41.109375 -49.65625 L 41.109375 1 L 40.40625 1 L 16.59375 -26.15625 L 14.390625 -29 L 14.75 -22.09375 L 14.75 0 L 5.984375 0 L 5.984375 -50.515625 L 6.765625 -50.515625 L 30.203125 -23.15625 L 32.703125 -19.921875 L 32.34375 -26.71875 L 32.34375 -49.65625 Z M 41.109375 -49.65625 "/></g></g></g><g fill="#002d2b" fill-opacity="1"><g transform="translate(506.419112, 442.137552)"><g><path d="M 5.734375 0.1875 C 4.054688 0.1875 2.847656 -0.285156 2.109375 -1.234375 C 1.378906 -2.191406 1.015625 -3.582031 1.015625 -5.40625 L 1.015625 -11.9375 C 1.015625 -13.71875 1.382812 -15.066406 2.125 -15.984375 C 2.863281 -16.910156 4.066406 -17.375 5.734375 -17.375 C 7.410156 -17.375 8.613281 -16.910156 9.34375 -15.984375 C 10.070312 -15.054688 10.4375 -13.707031 10.4375 -11.9375 L 10.4375 -5.375 C 10.4375 -3.59375 10.066406 -2.21875 9.328125 -1.25 C 8.597656 -0.289062 7.398438 0.1875 5.734375 0.1875 Z M 5.734375 -1.703125 C 6.628906 -1.703125 7.234375 -1.960938 7.546875 -2.484375 C 7.859375 -3.015625 8.015625 -3.8125 8.015625 -4.875 L 8.015625 -12.421875 C 8.015625 -13.472656 7.859375 -14.25 7.546875 -14.75 C 7.234375 -15.25 6.628906 -15.5 5.734375 -15.5 C 4.828125 -15.5 4.21875 -15.25 3.90625 -14.75 C 3.59375 -14.25 3.4375 -13.472656 3.4375 -12.421875 L 3.4375 -4.875 C 3.4375 -3.8125 3.59375 -3.015625 3.90625 -2.484375 C 4.21875 -1.960938 4.828125 -1.703125 5.734375 -1.703125 Z M 5.734375 -1.703125 "/></g></g></g><g fill="#002d2b" fill-opacity="1"><g transform="translate(522.876854, 442.137552)"><g/></g></g><g fill="#002d2b" fill-opacity="1"><g transform="translate(532.743825, 442.137552)"><g><path d="M 5.65625 0.1875 C 3.957031 0.1875 2.757812 -0.316406 2.0625 -1.328125 C 1.363281 -2.335938 1.015625 -3.738281 1.015625 -5.53125 L 1.015625 -11.609375 C 1.015625 -13.492188 1.351562 -14.925781 2.03125 -15.90625 C 2.71875 -16.882812 3.925781 -17.375 5.65625 -17.375 C 7.195312 -17.375 8.304688 -16.953125 8.984375 -16.109375 C 9.660156 -15.273438 10 -14.046875 10 -12.421875 L 10 -11.0625 L 7.71875 -11.0625 L 7.71875 -12.265625 C 7.71875 -13.066406 7.679688 -13.675781 7.609375 -14.09375 C 7.535156 -14.519531 7.351562 -14.859375 7.0625 -15.109375 C 6.78125 -15.367188 6.316406 -15.5 5.671875 -15.5 C 5.023438 -15.5 4.539062 -15.359375 4.21875 -15.078125 C 3.90625 -14.804688 3.695312 -14.425781 3.59375 -13.9375 C 3.488281 -13.445312 3.4375 -12.789062 3.4375 -11.96875 L 3.4375 -5.140625 C 3.4375 -4.265625 3.507812 -3.578125 3.65625 -3.078125 C 3.800781 -2.585938 4.03125 -2.234375 4.34375 -2.015625 C 4.664062 -1.804688 5.109375 -1.703125 5.671875 -1.703125 C 6.285156 -1.703125 6.738281 -1.835938 7.03125 -2.109375 C 7.332031 -2.378906 7.519531 -2.742188 7.59375 -3.203125 C 7.675781 -3.671875 7.71875 -4.3125 7.71875 -5.125 L 7.71875 -6.40625 L 10 -6.40625 L 10 -5.125 C 10 -3.40625 9.675781 -2.085938 9.03125 -1.171875 C 8.382812 -0.265625 7.257812 0.1875 5.65625 0.1875 Z M 5.65625 0.1875 "/></g></g></g><g fill="#002d2b" fill-opacity="1"><g transform="translate(548.691297, 442.137552)"><g><path d="M 5.734375 0.1875 C 4.054688 0.1875 2.847656 -0.285156 2.109375 -1.234375 C 1.378906 -2.191406 1.015625 -3.582031 1.015625 -5.40625 L 1.015625 -11.9375 C 1.015625 -13.71875 1.382812 -15.066406 2.125 -15.984375 C 2.863281 -16.910156 4.066406 -17.375 5.734375 -17.375 C 7.410156 -17.375 8.613281 -16.910156 9.34375 -15.984375 C 10.070312 -15.054688 10.4375 -13.707031 10.4375 -11.9375 L 10.4375 -5.375 C 10.4375 -3.59375 10.066406 -2.21875 9.328125 -1.25 C 8.597656 -0.289062 7.398438 0.1875 5.734375 0.1875 Z M 5.734375 -1.703125 C 6.628906 -1.703125 7.234375 -1.960938 7.546875 -2.484375 C 7.859375 -3.015625 8.015625 -3.8125 8.015625 -4.875 L 8.015625 -12.421875 C 8.015625 -13.472656 7.859375 -14.25 7.546875 -14.75 C 7.234375 -15.25 6.628906 -15.5 5.734375 -15.5 C 4.828125 -15.5 4.21875 -15.25 3.90625 -14.75 C 3.59375 -14.25 3.4375 -13.472656 3.4375 -12.421875 L 3.4375 -4.875 C 3.4375 -3.8125 3.59375 -3.015625 3.90625 -2.484375 C 4.21875 -1.960938 4.828125 -1.703125 5.734375 -1.703125 Z M 5.734375 -1.703125 "/></g></g></g><g fill="#002d2b" fill-opacity="1"><g transform="translate(565.149039, 442.137552)"><g><path d="M 1.609375 -17.21875 L 3.984375 -17.21875 L 7.015625 -3.25 L 10.078125 -17.21875 L 12.421875 -17.21875 L 12.734375 0 L 10.796875 0 L 10.609375 -12.5 L 7.703125 0 L 6.34375 0 L 3.4375 -12.5 L 3.25 0 L 1.296875 0 Z M 1.609375 -17.21875 "/></g></g></g><g fill="#002d2b" fill-opacity="1"><g transform="translate(584.179285, 442.137552)"><g><path d="M 1.34375 -17.21875 L 8.015625 -17.21875 L 8.015625 -15.4375 L 3.75 -15.4375 L 3.75 -9.734375 L 7.203125 -9.734375 L 7.203125 -8.03125 L 3.75 -8.03125 L 3.75 -1.71875 L 8.0625 -1.71875 L 8.0625 0 L 1.34375 0 Z M 1.34375 -17.21875 "/></g></g></g><g fill="#002d2b" fill-opacity="1"><g transform="translate(597.830638, 442.137552)"><g><path d="M 5.65625 0.1875 C 3.957031 0.1875 2.757812 -0.316406 2.0625 -1.328125 C 1.363281 -2.335938 1.015625 -3.738281 1.015625 -5.53125 L 1.015625 -11.609375 C 1.015625 -13.492188 1.351562 -14.925781 2.03125 -15.90625 C 2.71875 -16.882812 3.925781 -17.375 5.65625 -17.375 C 7.195312 -17.375 8.304688 -16.953125 8.984375 -16.109375 C 9.660156 -15.273438 10 -14.046875 10 -12.421875 L 10 -11.0625 L 7.71875 -11.0625 L 7.71875 -12.265625 C 7.71875 -13.066406 7.679688 -13.675781 7.609375 -14.09375 C 7.535156 -14.519531 7.351562 -14.859375 7.0625 -15.109375 C 6.78125 -15.367188 6.316406 -15.5 5.671875 -15.5 C 5.023438 -15.5 4.539062 -15.359375 4.21875 -15.078125 C 3.90625 -14.804688 3.695312 -14.425781 3.59375 -13.9375 C 3.488281 -13.445312 3.4375 -12.789062 3.4375 -11.96875 L 3.4375 -5.140625 C 3.4375 -4.265625 3.507812 -3.578125 3.65625 -3.078125 C 3.800781 -2.585938 4.03125 -2.234375 4.34375 -2.015625 C 4.664062 -1.804688 5.109375 -1.703125 5.671875 -1.703125 C 6.285156 -1.703125 6.738281 -1.835938 7.03125 -2.109375 C 7.332031 -2.378906 7.519531 -2.742188 7.59375 -3.203125 C 7.675781 -3.671875 7.71875 -4.3125 7.71875 -5.125 L 7.71875 -6.40625 L 10 -6.40625 L 10 -5.125 C 10 -3.40625 9.675781 -2.085938 9.03125 -1.171875 C 8.382812 -0.265625 7.257812 0.1875 5.65625 0.1875 Z M 5.765625 5 C 5.347656 5 4.875 4.925781 4.34375 4.78125 L 4.34375 3.640625 C 4.675781 3.734375 5.035156 3.78125 5.421875 3.78125 C 5.804688 3.78125 6.117188 3.710938 6.359375 3.578125 C 6.597656 3.441406 6.71875 3.234375 6.71875 2.953125 C 6.71875 2.597656 6.570312 2.332031 6.28125 2.15625 C 5.988281 1.976562 5.53125 1.847656 4.90625 1.765625 L 4.90625 0 L 6.0625 0 L 6.0625 1.1875 C 6.769531 1.1875 7.335938 1.351562 7.765625 1.6875 C 8.203125 2.019531 8.421875 2.460938 8.421875 3.015625 C 8.421875 3.671875 8.175781 4.164062 7.6875 4.5 C 7.195312 4.832031 6.554688 5 5.765625 5 Z M 5.765625 5 "/></g></g></g><g fill="#002d2b" fill-opacity="1"><g transform="translate(613.778104, 442.137552)"><g><path d="M 5.734375 0.1875 C 4.054688 0.1875 2.847656 -0.285156 2.109375 -1.234375 C 1.378906 -2.191406 1.015625 -3.582031 1.015625 -5.40625 L 1.015625 -11.9375 C 1.015625 -13.71875 1.382812 -15.066406 2.125 -15.984375 C 2.863281 -16.910156 4.066406 -17.375 5.734375 -17.375 C 7.410156 -17.375 8.613281 -16.910156 9.34375 -15.984375 C 10.070312 -15.054688 10.4375 -13.707031 10.4375 -11.9375 L 10.4375 -5.375 C 10.4375 -3.59375 10.066406 -2.21875 9.328125 -1.25 C 8.597656 -0.289062 7.398438 0.1875 5.734375 0.1875 Z M 5.734375 -1.703125 C 6.628906 -1.703125 7.234375 -1.960938 7.546875 -2.484375 C 7.859375 -3.015625 8.015625 -3.8125 8.015625 -4.875 L 8.015625 -12.421875 C 8.015625 -13.472656 7.859375 -14.25 7.546875 -14.75 C 7.234375 -15.25 6.628906 -15.5 5.734375 -15.5 C 4.828125 -15.5 4.21875 -15.25 3.90625 -14.75 C 3.59375 -14.25 3.4375 -13.472656 3.4375 -12.421875 L 3.4375 -4.875 C 3.4375 -3.8125 3.59375 -3.015625 3.90625 -2.484375 C 4.21875 -1.960938 4.828125 -1.703125 5.734375 -1.703125 Z M 5.734375 -1.703125 "/></g></g></g><g fill="#002d2b" fill-opacity="1"><g transform="translate(630.235852, 442.137552)"><g/></g></g><g fill="#002d2b" fill-opacity="1"><g transform="translate(640.102829, 442.137552)"><g><path d="M 1.34375 -17.21875 L 5.078125 -17.21875 C 6.941406 -17.21875 8.257812 -16.789062 9.03125 -15.9375 C 9.800781 -15.09375 10.1875 -13.769531 10.1875 -11.96875 L 10.1875 -5.640625 C 10.1875 -3.734375 9.804688 -2.316406 9.046875 -1.390625 C 8.285156 -0.460938 7.03125 0 5.28125 0 L 1.34375 0 Z M 5.109375 -1.71875 C 5.941406 -1.71875 6.546875 -1.878906 6.921875 -2.203125 C 7.296875 -2.535156 7.53125 -2.976562 7.625 -3.53125 C 7.71875 -4.09375 7.765625 -4.941406 7.765625 -6.078125 L 7.765625 -11.671875 C 7.765625 -12.648438 7.703125 -13.394531 7.578125 -13.90625 C 7.460938 -14.425781 7.210938 -14.8125 6.828125 -15.0625 C 6.441406 -15.3125 5.847656 -15.4375 5.046875 -15.4375 L 3.75 -15.4375 L 3.75 -1.71875 Z M 5.109375 -1.71875 "/></g></g></g><g fill="#002d2b" fill-opacity="1"><g transform="translate(656.305443, 442.137552)"><g><path d="M 4.0625 -17.21875 L 6.375 -17.21875 L 10.0625 0 L 7.78125 0 L 7 -4.34375 L 3.484375 -4.34375 L 2.65625 0 L 0.40625 0 Z M 6.671875 -6.0625 L 5.234375 -13.828125 L 3.8125 -6.0625 Z M 6.671875 -6.0625 "/></g></g></g><g fill="#002d2b" fill-opacity="1"><g transform="translate(671.763948, 442.137552)"><g/></g></g><g fill="#002d2b" fill-opacity="1"><g transform="translate(681.630925, 442.137552)"><g><path d="M 5.40625 0.1875 C 3.957031 0.1875 2.851562 -0.253906 2.09375 -1.140625 C 1.332031 -2.035156 0.910156 -3.265625 0.828125 -4.828125 L 2.953125 -5.40625 C 3.023438 -4.300781 3.238281 -3.40625 3.59375 -2.71875 C 3.957031 -2.039062 4.5625 -1.703125 5.40625 -1.703125 C 6.03125 -1.703125 6.5 -1.875 6.8125 -2.21875 C 7.132812 -2.570312 7.296875 -3.070312 7.296875 -3.71875 C 7.296875 -4.425781 7.144531 -5.015625 6.84375 -5.484375 C 6.550781 -5.953125 6.078125 -6.46875 5.421875 -7.03125 L 2.53125 -9.59375 C 1.945312 -10.101562 1.523438 -10.648438 1.265625 -11.234375 C 1.003906 -11.828125 0.875 -12.546875 0.875 -13.390625 C 0.875 -14.660156 1.234375 -15.640625 1.953125 -16.328125 C 2.679688 -17.023438 3.664062 -17.375 4.90625 -17.375 C 6.269531 -17.375 7.296875 -17.007812 7.984375 -16.28125 C 8.679688 -15.5625 9.101562 -14.441406 9.25 -12.921875 L 7.203125 -12.375 C 7.140625 -13.382812 6.945312 -14.160156 6.625 -14.703125 C 6.300781 -15.253906 5.726562 -15.53125 4.90625 -15.53125 C 4.300781 -15.53125 3.832031 -15.367188 3.5 -15.046875 C 3.175781 -14.722656 3.015625 -14.25 3.015625 -13.625 C 3.015625 -13.113281 3.097656 -12.6875 3.265625 -12.34375 C 3.441406 -12 3.734375 -11.648438 4.140625 -11.296875 L 7.0625 -8.734375 C 7.8125 -8.066406 8.410156 -7.34375 8.859375 -6.5625 C 9.304688 -5.789062 9.53125 -4.90625 9.53125 -3.90625 C 9.53125 -2.644531 9.144531 -1.644531 8.375 -0.90625 C 7.613281 -0.175781 6.625 0.1875 5.40625 0.1875 Z M 5.40625 0.1875 "/></g></g></g><g fill="#002d2b" fill-opacity="1"><g transform="translate(696.685479, 442.137552)"><g><path d="M 5.78125 0.1875 C 4.582031 0.1875 3.644531 -0.0507812 2.96875 -0.53125 C 2.289062 -1.007812 1.820312 -1.679688 1.5625 -2.546875 C 1.3125 -3.410156 1.1875 -4.5 1.1875 -5.8125 L 1.1875 -17.21875 L 3.484375 -17.21875 L 3.484375 -5.703125 C 3.484375 -4.398438 3.632812 -3.40625 3.9375 -2.71875 C 4.25 -2.039062 4.863281 -1.703125 5.78125 -1.703125 C 6.707031 -1.703125 7.320312 -2.039062 7.625 -2.71875 C 7.925781 -3.40625 8.078125 -4.398438 8.078125 -5.703125 L 8.078125 -17.21875 L 10.359375 -17.21875 L 10.359375 -5.8125 C 10.359375 -4.5 10.226562 -3.410156 9.96875 -2.546875 C 9.71875 -1.679688 9.257812 -1.007812 8.59375 -0.53125 C 7.925781 -0.0507812 6.988281 0.1875 5.78125 0.1875 Z M 5.78125 0.1875 "/></g></g></g><g fill="#002d2b" fill-opacity="1"><g transform="translate(713.228273, 442.137552)"><g><path d="M 4.0625 -17.21875 L 6.375 -17.21875 L 10.0625 0 L 7.78125 0 L 7 -4.34375 L 3.484375 -4.34375 L 2.65625 0 L 0.40625 0 Z M 6.671875 -6.0625 L 5.234375 -13.828125 L 3.8125 -6.0625 Z M 6.671875 -6.0625 "/></g></g></g><g fill="#002d2b" fill-opacity="1"><g transform="translate(728.686779, 442.137552)"><g/></g></g><g fill="#002d2b" fill-opacity="1"><g transform="translate(738.553756, 442.137552)"><g><path d="M 5.65625 0.1875 C 3.957031 0.1875 2.757812 -0.316406 2.0625 -1.328125 C 1.363281 -2.335938 1.015625 -3.738281 1.015625 -5.53125 L 1.015625 -11.609375 C 1.015625 -13.492188 1.351562 -14.925781 2.03125 -15.90625 C 2.71875 -16.882812 3.925781 -17.375 5.65625 -17.375 C 7.195312 -17.375 8.304688 -16.953125 8.984375 -16.109375 C 9.660156 -15.273438 10 -14.046875 10 -12.421875 L 10 -11.0625 L 7.71875 -11.0625 L 7.71875 -12.265625 C 7.71875 -13.066406 7.679688 -13.675781 7.609375 -14.09375 C 7.535156 -14.519531 7.351562 -14.859375 7.0625 -15.109375 C 6.78125 -15.367188 6.316406 -15.5 5.671875 -15.5 C 5.023438 -15.5 4.539062 -15.359375 4.21875 -15.078125 C 3.90625 -14.804688 3.695312 -14.425781 3.59375 -13.9375 C 3.488281 -13.445312 3.4375 -12.789062 3.4375 -11.96875 L 3.4375 -5.140625 C 3.4375 -4.265625 3.507812 -3.578125 3.65625 -3.078125 C 3.800781 -2.585938 4.03125 -2.234375 4.34375 -2.015625 C 4.664062 -1.804688 5.109375 -1.703125 5.671875 -1.703125 C 6.285156 -1.703125 6.738281 -1.835938 7.03125 -2.109375 C 7.332031 -2.378906 7.519531 -2.742188 7.59375 -3.203125 C 7.675781 -3.671875 7.71875 -4.3125 7.71875 -5.125 L 7.71875 -6.40625 L 10 -6.40625 L 10 -5.125 C 10 -3.40625 9.675781 -2.085938 9.03125 -1.171875 C 8.382812 -0.265625 7.257812 0.1875 5.65625 0.1875 Z M 5.65625 0.1875 "/></g></g></g><g fill="#002d2b" fill-opacity="1"><g transform="translate(754.501234, 442.137552)"><g><path d="M 4.0625 -17.21875 L 6.375 -17.21875 L 10.0625 0 L 7.78125 0 L 7 -4.34375 L 3.484375 -4.34375 L 2.65625 0 L 0.40625 0 Z M 6.671875 -6.0625 L 5.234375 -13.828125 L 3.8125 -6.0625 Z M 6.671875 -6.0625 "/></g></g></g><g fill="#002d2b" fill-opacity="1"><g transform="translate(769.95974, 442.137552)"><g><path d="M 1.34375 -17.21875 L 4.8125 -17.21875 C 6.550781 -17.21875 7.828125 -16.859375 8.640625 -16.140625 C 9.460938 -15.429688 9.875 -14.269531 9.875 -12.65625 C 9.875 -10.4375 9.160156 -9.097656 7.734375 -8.640625 L 10.1875 0 L 7.875 0 L 5.609375 -8.078125 L 3.75 -8.078125 L 3.75 0 L 1.34375 0 Z M 4.65625 -9.796875 C 5.6875 -9.796875 6.425781 -10 6.875 -10.40625 C 7.320312 -10.820312 7.546875 -11.570312 7.546875 -12.65625 C 7.546875 -13.363281 7.46875 -13.914062 7.3125 -14.3125 C 7.15625 -14.71875 6.878906 -15.015625 6.484375 -15.203125 C 6.085938 -15.398438 5.53125 -15.5 4.8125 -15.5 L 3.75 -15.5 L 3.75 -9.796875 Z M 4.65625 -9.796875 "/></g></g></g><g fill="#002d2b" fill-opacity="1"><g transform="translate(785.992263, 442.137552)"><g><path d="M 1.34375 -17.21875 L 4.8125 -17.21875 C 6.550781 -17.21875 7.828125 -16.859375 8.640625 -16.140625 C 9.460938 -15.429688 9.875 -14.269531 9.875 -12.65625 C 9.875 -10.4375 9.160156 -9.097656 7.734375 -8.640625 L 10.1875 0 L 7.875 0 L 5.609375 -8.078125 L 3.75 -8.078125 L 3.75 0 L 1.34375 0 Z M 4.65625 -9.796875 C 5.6875 -9.796875 6.425781 -10 6.875 -10.40625 C 7.320312 -10.820312 7.546875 -11.570312 7.546875 -12.65625 C 7.546875 -13.363281 7.46875 -13.914062 7.3125 -14.3125 C 7.15625 -14.71875 6.878906 -15.015625 6.484375 -15.203125 C 6.085938 -15.398438 5.53125 -15.5 4.8125 -15.5 L 3.75 -15.5 L 3.75 -9.796875 Z M 4.65625 -9.796875 "/></g></g></g><g fill="#002d2b" fill-opacity="1"><g transform="translate(802.024786, 442.137552)"><g><path d="M 1.34375 -17.21875 L 8.015625 -17.21875 L 8.015625 -15.4375 L 3.75 -15.4375 L 3.75 -9.734375 L 7.203125 -9.734375 L 7.203125 -8.03125 L 3.75 -8.03125 L 3.75 -1.71875 L 8.0625 -1.71875 L 8.0625 0 L 1.34375 0 Z M 1.34375 -17.21875 "/></g></g></g><g fill="#002d2b" fill-opacity="1"><g transform="translate(815.676146, 442.137552)"><g><path d="M 1.46875 -17.21875 L 3.828125 -17.21875 L 3.828125 0 L 1.46875 0 Z M 1.46875 -17.21875 "/></g></g></g><g fill="#002d2b" fill-opacity="1"><g transform="translate(825.947074, 442.137552)"><g><path d="M 1.34375 -17.21875 L 4.8125 -17.21875 C 6.550781 -17.21875 7.828125 -16.859375 8.640625 -16.140625 C 9.460938 -15.429688 9.875 -14.269531 9.875 -12.65625 C 9.875 -10.4375 9.160156 -9.097656 7.734375 -8.640625 L 10.1875 0 L 7.875 0 L 5.609375 -8.078125 L 3.75 -8.078125 L 3.75 0 L 1.34375 0 Z M 4.65625 -9.796875 C 5.6875 -9.796875 6.425781 -10 6.875 -10.40625 C 7.320312 -10.820312 7.546875 -11.570312 7.546875 -12.65625 C 7.546875 -13.363281 7.46875 -13.914062 7.3125 -14.3125 C 7.15625 -14.71875 6.878906 -15.015625 6.484375 -15.203125 C 6.085938 -15.398438 5.53125 -15.5 4.8125 -15.5 L 3.75 -15.5 L 3.75 -9.796875 Z M 4.65625 -9.796875 "/></g></g></g><g fill="#002d2b" fill-opacity="1"><g transform="translate(841.979598, 442.137552)"><g><path d="M 4.0625 -17.21875 L 6.375 -17.21875 L 10.0625 0 L 7.78125 0 L 7 -4.34375 L 3.484375 -4.34375 L 2.65625 0 L 0.40625 0 Z M 6.671875 -6.0625 L 5.234375 -13.828125 L 3.8125 -6.0625 Z M 6.671875 -6.0625 "/></g></g></g><g fill="#002d2b" fill-opacity="1"><g transform="translate(857.438103, 442.137552)"><g/></g></g><g fill="#002d2b" fill-opacity="1"><g transform="translate(867.30508, 442.137552)"><g><path d="M 1.34375 -17.21875 L 8.015625 -17.21875 L 8.015625 -15.4375 L 3.75 -15.4375 L 3.75 -9.734375 L 7.203125 -9.734375 L 7.203125 -8.03125 L 3.75 -8.03125 L 3.75 -1.71875 L 8.0625 -1.71875 L 8.0625 0 L 1.34375 0 Z M 1.34375 -17.21875 "/></g></g></g><g fill="#002d2b" fill-opacity="1"><g transform="translate(880.95644, 442.137552)"><g><path d="M 1.609375 -17.21875 L 3.984375 -17.21875 L 7.015625 -3.25 L 10.078125 -17.21875 L 12.421875 -17.21875 L 12.734375 0 L 10.796875 0 L 10.609375 -12.5 L 7.703125 0 L 6.34375 0 L 3.4375 -12.5 L 3.25 0 L 1.296875 0 Z M 1.609375 -17.21875 "/></g></g></g><g fill="#002d2b" fill-opacity="1"><g transform="translate(899.986691, 442.137552)"><g/></g></g><g fill="#002d2b" fill-opacity="1"><g transform="translate(909.853668, 442.137552)"><g><path d="M 1.34375 -17.21875 L 5.078125 -17.21875 C 6.941406 -17.21875 8.257812 -16.789062 9.03125 -15.9375 C 9.800781 -15.09375 10.1875 -13.769531 10.1875 -11.96875 L 10.1875 -5.640625 C 10.1875 -3.734375 9.804688 -2.316406 9.046875 -1.390625 C 8.285156 -0.460938 7.03125 0 5.28125 0 L 1.34375 0 Z M 5.109375 -1.71875 C 5.941406 -1.71875 6.546875 -1.878906 6.921875 -2.203125 C 7.296875 -2.535156 7.53125 -2.976562 7.625 -3.53125 C 7.71875 -4.09375 7.765625 -4.941406 7.765625 -6.078125 L 7.765625 -11.671875 C 7.765625 -12.648438 7.703125 -13.394531 7.578125 -13.90625 C 7.460938 -14.425781 7.210938 -14.8125 6.828125 -15.0625 C 6.441406 -15.3125 5.847656 -15.4375 5.046875 -15.4375 L 3.75 -15.4375 L 3.75 -1.71875 Z M 5.109375 -1.71875 "/></g></g></g><g fill="#002d2b" fill-opacity="1"><g transform="translate(926.056257, 442.137552)"><g><path d="M 4.0625 -17.21875 L 6.375 -17.21875 L 10.0625 0 L 7.78125 0 L 7 -4.34375 L 3.484375 -4.34375 L 2.65625 0 L 0.40625 0 Z M 6.671875 -6.0625 L 5.234375 -13.828125 L 3.8125 -6.0625 Z M 6.671875 -6.0625 "/></g></g></g><g fill="#002d2b" fill-opacity="1"><g transform="translate(941.514739, 442.137552)"><g><path d="M 1.34375 -17.21875 L 5.078125 -17.21875 C 6.941406 -17.21875 8.257812 -16.789062 9.03125 -15.9375 C 9.800781 -15.09375 10.1875 -13.769531 10.1875 -11.96875 L 10.1875 -5.640625 C 10.1875 -3.734375 9.804688 -2.316406 9.046875 -1.390625 C 8.285156 -0.460938 7.03125 0 5.28125 0 L 1.34375 0 Z M 5.109375 -1.71875 C 5.941406 -1.71875 6.546875 -1.878906 6.921875 -2.203125 C 7.296875 -2.535156 7.53125 -2.976562 7.625 -3.53125 C 7.71875 -4.09375 7.765625 -4.941406 7.765625 -6.078125 L 7.765625 -11.671875 C 7.765625 -12.648438 7.703125 -13.394531 7.578125 -13.90625 C 7.460938 -14.425781 7.210938 -14.8125 6.828125 -15.0625 C 6.441406 -15.3125 5.847656 -15.4375 5.046875 -15.4375 L 3.75 -15.4375 L 3.75 -1.71875 Z M 5.109375 -1.71875 "/></g></g></g><g fill="#002d2b" fill-opacity="1"><g transform="translate(957.717352, 442.137552)"><g><path d="M 5.734375 0.1875 C 4.054688 0.1875 2.847656 -0.285156 2.109375 -1.234375 C 1.378906 -2.191406 1.015625 -3.582031 1.015625 -5.40625 L 1.015625 -11.9375 C 1.015625 -13.71875 1.382812 -15.066406 2.125 -15.984375 C 2.863281 -16.910156 4.066406 -17.375 5.734375 -17.375 C 7.410156 -17.375 8.613281 -16.910156 9.34375 -15.984375 C 10.070312 -15.054688 10.4375 -13.707031 10.4375 -11.9375 L 10.4375 -5.375 C 10.4375 -3.59375 10.066406 -2.21875 9.328125 -1.25 C 8.597656 -0.289062 7.398438 0.1875 5.734375 0.1875 Z M 5.734375 -1.703125 C 6.628906 -1.703125 7.234375 -1.960938 7.546875 -2.484375 C 7.859375 -3.015625 8.015625 -3.8125 8.015625 -4.875 L 8.015625 -12.421875 C 8.015625 -13.472656 7.859375 -14.25 7.546875 -14.75 C 7.234375 -15.25 6.628906 -15.5 5.734375 -15.5 C 4.828125 -15.5 4.21875 -15.25 3.90625 -14.75 C 3.59375 -14.25 3.4375 -13.472656 3.4375 -12.421875 L 3.4375 -4.875 C 3.4375 -3.8125 3.59375 -3.015625 3.90625 -2.484375 C 4.21875 -1.960938 4.828125 -1.703125 5.734375 -1.703125 Z M 5.734375 -1.703125 "/></g></g></g><g fill="#002d2b" fill-opacity="1"><g transform="translate(974.1751, 442.137552)"><g><path d="M 5.40625 0.1875 C 3.957031 0.1875 2.851562 -0.253906 2.09375 -1.140625 C 1.332031 -2.035156 0.910156 -3.265625 0.828125 -4.828125 L 2.953125 -5.40625 C 3.023438 -4.300781 3.238281 -3.40625 3.59375 -2.71875 C 3.957031 -2.039062 4.5625 -1.703125 5.40625 -1.703125 C 6.03125 -1.703125 6.5 -1.875 6.8125 -2.21875 C 7.132812 -2.570312 7.296875 -3.070312 7.296875 -3.71875 C 7.296875 -4.425781 7.144531 -5.015625 6.84375 -5.484375 C 6.550781 -5.953125 6.078125 -6.46875 5.421875 -7.03125 L 2.53125 -9.59375 C 1.945312 -10.101562 1.523438 -10.648438 1.265625 -11.234375 C 1.003906 -11.828125 0.875 -12.546875 0.875 -13.390625 C 0.875 -14.660156 1.234375 -15.640625 1.953125 -16.328125 C 2.679688 -17.023438 3.664062 -17.375 4.90625 -17.375 C 6.269531 -17.375 7.296875 -17.007812 7.984375 -16.28125 C 8.679688 -15.5625 9.101562 -14.441406 9.25 -12.921875 L 7.203125 -12.375 C 7.140625 -13.382812 6.945312 -14.160156 6.625 -14.703125 C 6.300781 -15.253906 5.726562 -15.53125 4.90625 -15.53125 C 4.300781 -15.53125 3.832031 -15.367188 3.5 -15.046875 C 3.175781 -14.722656 3.015625 -14.25 3.015625 -13.625 C 3.015625 -13.113281 3.097656 -12.6875 3.265625 -12.34375 C 3.441406 -12 3.734375 -11.648438 4.140625 -11.296875 L 7.0625 -8.734375 C 7.8125 -8.066406 8.410156 -7.34375 8.859375 -6.5625 C 9.304688 -5.789062 9.53125 -4.90625 9.53125 -3.90625 C 9.53125 -2.644531 9.144531 -1.644531 8.375 -0.90625 C 7.613281 -0.175781 6.625 0.1875 5.40625 0.1875 Z M 5.40625 0.1875 "/></g></g></g></svg>